<?xml version="1.0" encoding="UTF-8"?>
<svg width="16px" height="16px" viewBox="0 0 16 16" version="1.1" xmlns="http://www.w3.org/2000/svg" xmlns:xlink="http://www.w3.org/1999/xlink">
    <!-- Generator: Sketch 61 (89581) - https://sketch.com -->
    <title>图标/删除</title>
    <desc>Created with Sketch.</desc>
    <g id="图标/删除" stroke="none" stroke-width="1" fill="none" fill-rule="evenodd">
        <g id="编组-12备份" fill="#8C90AB">
            <path d="M10.9752,3.099568 L10.80656,3.099568 C10.80656,1.940168 9.87904,1 8.69856,1 L7.34944,1 C6.16896,1 5.24144,1.940168 5.24144,3.099568 L4.73552,3.099568 L4.48256,3.099568 L4.48256,3.099568 L2.45888,3.099568 C2.03728,3.099568 1.7,3.4132384 1.7,3.799424 C1.7,4.1864528 2.03728,4.49928 2.45888,4.49928 L3.13344,4.49928 L3.13344,12.8983952 C3.13344,14.0577952 4.06096,14.9979632 5.24144,14.9979632 L10.80656,14.9979632 C11.98704,14.9979632 12.91456,14.0577952 12.91456,12.8983952 L12.91456,4.49928 L13.58912,4.49928 C14.01072,4.49928 14.348,4.1864528 14.348,3.799424 C14.348,3.4132384 14.01072,3.099568 13.58912,3.099568 L11.56544,3.099568 L11.48112,3.099568 L10.9752,3.099568 Z M11.48112,4.49928 L10.132,4.49928 L9.45744,4.49928 L6.59056,4.49928 L5.916,4.49928 L4.48256,4.49928 L4.48256,5.898992 L4.48256,12.8983952 C4.48256,13.2845808 4.81984,13.5982512 5.24144,13.5982512 L10.80656,13.5982512 C11.22816,13.5982512 11.48112,13.2845808 11.48112,12.8983952 L11.48112,5.898992 L11.48112,4.49928 Z M6.59056,3.099568 L7.34944,3.099568 L8.024,3.099568 L8.69856,3.099568 L9.45744,3.099568 C9.45744,2.7133824 9.12016,2.399712 8.69856,2.399712 L7.34944,2.399712 C6.92784,2.399712 6.59056,2.7133824 6.59056,3.099568 Z M6.59056,5.898992 C7.01216,5.898992 7.34944,6.2126624 7.34944,6.598848 L7.34944,11.4986832 C7.34944,11.8848688 7.01216,12.1985392 6.59056,12.1985392 C6.25328,12.1985392 5.916,11.8848688 5.916,11.4986832 L5.916,6.598848 C5.916,6.2126624 6.25328,5.898992 6.59056,5.898992 Z M10.132,6.598848 C10.132,6.2126624 9.79472,5.898992 9.45744,5.898992 C9.03584,5.898992 8.69856,6.2126624 8.69856,6.598848 L8.69856,11.4986832 C8.69856,11.8848688 9.03584,12.1985392 9.45744,12.1985392 C9.79472,12.1985392 10.132,11.8848688 10.132,11.4986832 L10.132,6.598848 Z" id="Shape"></path>
        </g>
    </g>
</svg>