<?xml version="1.0" encoding="UTF-8"?>
<svg width="16px" height="16px" viewBox="0 0 16 16" version="1.1" xmlns="http://www.w3.org/2000/svg" xmlns:xlink="http://www.w3.org/1999/xlink">
    <!-- Generator: Sketch 61 (89581) - https://sketch.com -->
    <title>图标/日志</title>
    <desc>Created with Sketch.</desc>
    <g id="图标/日志" stroke="none" stroke-width="1" fill="none" fill-rule="evenodd">
        <g id="编组-12备份" fill="#8C90AB">
            <path d="M3.799568,14.9979632 L12.19784,14.9979632 C13.361456,14.9979632 14.297408,14.0577952 14.297408,12.8983952 L14.297408,7.9994032 L14.297408,5.464744 C14.297408,4.9520784 14.111904,4.4562768 13.766192,4.0726208 L12.61944,2.77072 L11.717216,1.729368 C11.320912,1.2664512 10.739104,1 10.132,1 L7.998704,1 L3.799568,1 C2.644384,1 1.7,1.940168 1.7,3.099568 L1.7,12.8983952 C1.7,14.0577952 2.644384,14.9979632 3.799568,14.9979632 Z M10.654784,2.6433968 L11.56544,3.6923376 L12.720624,5.000984 C12.838672,5.1291504 12.897696,5.2935744 12.897696,5.464744 L12.897696,7.9994032 L12.897696,12.8983952 C12.897696,13.2845808 12.585712,13.5982512 12.19784,13.5982512 L3.799568,13.5982512 C3.411696,13.5982512 3.099712,13.2845808 3.099712,12.8983952 L3.099712,3.099568 C3.099712,2.7133824 3.411696,2.399712 3.799568,2.399712 L7.998704,2.399712 L10.132,2.399712 C10.334368,2.399712 10.528304,2.4890912 10.654784,2.6433968 Z M5.899136,4.49928 C5.511264,4.49928 5.19928,4.8129504 5.19928,5.199136 C5.19928,5.5861648 5.511264,5.898992 5.899136,5.898992 L9.398416,5.898992 C9.786288,5.898992 10.098272,5.5861648 10.098272,5.199136 C10.098272,4.8129504 9.786288,4.49928 9.398416,4.49928 L5.899136,4.49928 Z M5.19928,7.9994032 C5.19928,7.6123744 5.511264,7.2995472 5.899136,7.2995472 L10.098272,7.2995472 C10.486144,7.2995472 10.798128,7.6123744 10.798128,7.9994032 C10.798128,8.3855888 10.486144,8.6992592 10.098272,8.6992592 L5.899136,8.6992592 C5.511264,8.6992592 5.19928,8.3855888 5.19928,7.9994032 Z M5.899136,10.0989712 C5.511264,10.0989712 5.19928,10.4117984 5.19928,10.7988272 C5.19928,11.1850128 5.511264,11.4986832 5.899136,11.4986832 L10.098272,11.4986832 C10.486144,11.4986832 10.798128,11.1850128 10.798128,10.7988272 C10.798128,10.4117984 10.486144,10.0989712 10.098272,10.0989712 L5.899136,10.0989712 Z" id="Shape"></path>
        </g>
    </g>
</svg>