<?xml version="1.0" encoding="UTF-8"?>
<svg width="16px" height="16px" viewBox="0 0 16 16" version="1.1" xmlns="http://www.w3.org/2000/svg" xmlns:xlink="http://www.w3.org/1999/xlink">
    <!-- Generator: Sketch 61 (89581) - https://sketch.com -->
    <title>跳转网址</title>
    <desc>Created with Sketch.</desc>
    <g id="跳转网址" stroke="none" stroke-width="1" fill="none" fill-rule="evenodd">
        <path d="M9.2347264,11.988768 C9.5062368,12.2644944 9.9489168,12.2687104 10.2246432,11.9980432 L13.7880064,8.49876323 C13.9220752,8.36638083 13.99712,8.18677923 13.99712,7.99874563 C13.99712,7.81155523 13.9220752,7.63111043 13.7880064,7.49957123 L10.2246432,4.00029123 C9.9489168,3.72962403 9.5062368,3.73384003 9.2347264,4.00956643 C8.9640592,4.28529283 8.9682752,4.72797283 9.2440016,4.99864003 L11.585568,7.29888963 L2.699856,7.29888963 C2.3128272,7.29888963 2,7.61256003 2,7.99874563 C2,8.38577443 2.3128272,8.69860163 2.699856,8.69860163 L11.585568,8.69860163 L9.2440016,10.9988512 C8.9682752,11.2703616 8.9640592,11.7130416 9.2347264,11.988768 Z" id="Path" fill="#304FFE"></path>
    </g>
</svg>