<?xml version="1.0" encoding="UTF-8"?>
<svg width="16px" height="16px" viewBox="0 0 16 16" version="1.1" xmlns="http://www.w3.org/2000/svg" xmlns:xlink="http://www.w3.org/1999/xlink">
    <!-- Generator: Sketch 61 (89581) - https://sketch.com -->
    <title>图标/项目组管理</title>
    <desc>Created with Sketch.</desc>
    <g id="图标/项目组管理" stroke="none" stroke-width="1" fill="none" fill-rule="evenodd">
        <g id="编组-12备份" fill="#FFFFFF">
            <path d="M7.59804,1.7752556 C7.851,1.6749148 8.18828,1.6749148 8.44124,1.7752556 L14.34364,4.2078876 C15.27116,4.5620316 15.27116,5.8124972 14.34364,6.165798 L13.3318,6.5933004 L14.34364,7.0199596 C15.27116,7.3732604 15.27116,8.6245692 14.34364,8.97787 L13.3318,9.4045292 L14.34364,9.8311884 C15.27116,10.1844892 15.27116,11.435798 14.34364,11.7890988 L8.44124,14.222574 C8.18828,14.3229148 7.851,14.3229148 7.59804,14.222574 L1.69564,11.7890988 C0.76812,11.435798 0.76812,10.1844892 1.69564,9.8311884 L2.70748,9.4045292 L1.69564,8.97787 C0.76812,8.6245692 0.76812,7.3732604 1.69564,7.0199596 L2.70748,6.5933004 L1.69564,6.165798 C0.76812,5.8124972 0.76812,4.5620316 1.69564,4.2078876 L7.59804,1.7752556 Z M4.56252,7.3496508 L2.96044,7.9989148 L8.01964,10.05295 L13.07884,7.9989148 L11.47676,7.3496508 L8.44124,8.5992732 C8.18828,8.699614 7.851,8.699614 7.59804,8.5992732 L4.56252,7.3496508 Z M4.56252,10.1617228 L2.96044,10.8101436 L8.01964,12.865022 L13.07884,10.8101436 L11.47676,10.1617228 L8.44124,11.410502 C8.18828,11.511686 7.851,11.511686 7.59804,11.410502 L4.56252,10.1617228 Z M8.01964,3.1328076 L2.96044,5.1868428 L8.01964,7.2417212 L13.07884,5.1868428 L8.01964,3.1328076 Z" id="Shape"></path>
        </g>
    </g>
</svg>