<?xml version="1.0" encoding="UTF-8"?>
<svg width="16px" height="16px" viewBox="0 0 16 16" version="1.1" xmlns="http://www.w3.org/2000/svg" xmlns:xlink="http://www.w3.org/1999/xlink">
    <!-- Generator: Sketch 61 (89581) - https://sketch.com -->
    <title>图标/项目</title>
    <desc>Created with Sketch.</desc>
    <g id="图标/项目" stroke="none" stroke-width="1" fill="none" fill-rule="evenodd">
        <g id="编组-12备份" fill="#8C90AB">
            <path d="M2.753856,2.3685136 C2.55992,2.3685136 2.399712,2.521976 2.399712,2.7108528 L2.399712,7.9994032 L2.399712,13.2871104 C2.399712,13.4768304 2.55992,13.6294496 2.753856,13.6294496 L9.845168,13.6294496 C9.988512,13.6294496 10.098128,13.517304 10.098128,13.378176 L10.098128,3.3955312 C10.098128,3.027896 10.182448,2.6796544 10.334224,2.3685136 L2.753856,2.3685136 Z M12.197696,1.0244528 L12.197696,1 L2.753856,1 C1.784176,1 1,1.7656256 1,2.7108528 L1,7.9994032 L1,13.2871104 C1,14.2323376 1.784176,14.9979632 2.753856,14.9979632 L9.845168,14.9979632 C10.755824,14.9979632 11.49784,14.2728112 11.49784,13.378176 L11.49784,5.7902192 L14.263536,5.7902192 C14.668272,5.7902192 14.99712,5.46896 14.99712,5.0718128 L14.99712,3.3955312 C14.99712,2.0725504 13.90096,1 12.55184,1 C12.433792,1 12.315744,1.008432 12.197696,1.0244528 Z M13.597408,4.4217056 L13.597408,3.3955312 C13.597408,2.8280576 13.133648,2.3685136 12.55184,2.3685136 C11.970032,2.3685136 11.49784,2.8280576 11.49784,3.3955312 L11.49784,4.4217056 L13.597408,4.4217056 Z M3.799424,8.5272464 C3.799424,8.1494928 4.111408,7.842568 4.49928,7.842568 L7.99856,7.842568 C8.386432,7.842568 8.698416,8.1494928 8.698416,8.5272464 C8.698416,8.905 8.386432,9.2110816 7.99856,9.2110816 L4.49928,9.2110816 C4.111408,9.2110816 3.799424,8.905 3.799424,8.5272464 Z M4.49928,4.4217056 C4.111408,4.4217056 3.799424,4.7277872 3.799424,5.1055408 C3.799424,5.4841376 4.111408,5.7902192 4.49928,5.7902192 L7.99856,5.7902192 C8.386432,5.7902192 8.698416,5.4841376 8.698416,5.1055408 C8.698416,4.7277872 8.386432,4.4217056 7.99856,4.4217056 L4.49928,4.4217056 Z" id="Shape"></path>
        </g>
    </g>
</svg>