<?xml version="1.0" encoding="UTF-8"?>
<svg width="16px" height="16px" viewBox="0 0 16 16" version="1.1" xmlns="http://www.w3.org/2000/svg" xmlns:xlink="http://www.w3.org/1999/xlink">
    <!-- Generator: Sketch 61 (89581) - https://sketch.com -->
    <title>图标/项目组</title>
    <desc>Created with Sketch.</desc>
    <g id="图标/项目组" stroke="none" stroke-width="1" fill="none" fill-rule="evenodd">
        <g id="编组-12备份" fill="#FFFFFF">
            <path d="M13.597408,14.297408 C14.373152,14.297408 14.99712,13.6709104 14.99712,12.897696 L14.99712,5.899136 C14.99712,5.5104208 14.836912,5.1579632 14.583952,4.90416 C14.567088,4.8721184 14.550224,4.84092 14.53336,4.811408 L13.336016,3.0229808 C13.083056,2.6334224 12.644592,2.399856 12.1724,2.399856 L7.467344,2.399856 L7.433616,2.357696 C7.180656,1.948744 6.73376,1.7 6.253136,1.7 L2.399712,1.7 C1.6324,1.7 1,2.3264976 1,3.099712 L1,9.048488 L1,12.897696 C1,13.2695472 1.151776,13.6253776 1.413168,13.8876128 C1.67456,14.1506912 2.028704,14.297408 2.399712,14.297408 L13.597408,14.297408 Z M8.33584,3.799568 L8.774304,4.499424 L12.644592,4.499424 L12.1724,3.799568 L8.33584,3.799568 Z M13.597408,12.897696 L12.197696,12.897696 L3.799424,12.897696 L2.399712,12.897696 L2.399712,11.497984 L2.399712,9.048488 L2.399712,4.499424 L2.399712,3.099712 L3.799424,3.099712 L6.253136,3.099712 L7.796192,5.570288 C7.922672,5.7751856 8.150336,5.899136 8.386432,5.899136 L12.197696,5.899136 L13.597408,5.899136 L13.597408,7.298848 L13.597408,11.497984 L13.597408,12.897696 Z M4.49928,10.098272 C4.111408,10.098272 3.799424,10.4119424 3.799424,10.798128 C3.799424,11.1851568 4.111408,11.497984 4.49928,11.497984 L6.598848,11.497984 C6.98672,11.497984 7.298704,11.1851568 7.298704,10.798128 C7.298704,10.4119424 6.98672,10.098272 6.598848,10.098272 L4.49928,10.098272 Z M7.99856,10.798128 C7.99856,10.4119424 8.310544,10.098272 8.698416,10.098272 L9.398272,10.098272 C9.786144,10.098272 10.098128,10.4119424 10.098128,10.798128 C10.098128,11.1851568 9.786144,11.497984 9.398272,11.497984 L8.698416,11.497984 C8.310544,11.497984 7.99856,11.1851568 7.99856,10.798128 Z" id="Shape"></path>
        </g>
    </g>
</svg>