<?xml version="1.0" encoding="UTF-8"?>
<svg width="16px" height="16px" viewBox="0 0 16 16" version="1.1" xmlns="http://www.w3.org/2000/svg" xmlns:xlink="http://www.w3.org/1999/xlink">
    <!-- Generator: Sketch 61 (89581) - https://sketch.com -->
    <title>图标/用户灰</title>
    <desc>Created with Sketch.</desc>
    <g id="图标/用户灰" stroke="none" stroke-width="1" fill="none" fill-rule="evenodd">
        <g id="编组-12备份" fill="#8C90AB">
            <path d="M7.99856,14.9979632 C4.136704,14.9979632 1,11.864632 1,7.9994032 C1,4.1333312 4.136704,1 7.99856,1 C11.868848,1 15.005552,4.1333312 15.005552,7.9994032 C15.005552,11.864632 11.868848,14.9979632 7.99856,14.9979632 Z M7.99856,2.399712 C4.912448,2.399712 2.399712,4.9065456 2.399712,7.9994032 C2.399712,9.6014832 3.074272,11.0458848 4.153568,12.067 C4.726944,10.9016976 5.915856,10.0989712 7.298704,10.0989712 L9.05256,10.0989712 C10.342656,10.0989712 11.447248,10.8730288 11.936304,11.98268 C12.965008,10.9674672 13.60584,9.5576368 13.60584,7.9994032 C13.60584,4.9065456 11.093104,2.399712 7.99856,2.399712 Z M10.764256,12.872256 C10.587184,12.0863936 9.887328,11.4986832 9.05256,11.4986832 L7.298704,11.4986832 C6.379616,11.4986832 5.603872,12.0897664 5.317184,12.9135728 C6.118224,13.3495072 7.02888,13.5982512 7.99856,13.5982512 C9.001968,13.5982512 9.946352,13.3343296 10.764256,12.872256 Z M7.99856,9.3991152 C6.455504,9.3991152 5.199136,8.1452768 5.199136,6.5996912 C5.199136,5.0532624 6.455504,3.799424 7.99856,3.799424 C9.550048,3.799424 10.797984,5.0532624 10.797984,6.5996912 C10.797984,8.1452768 9.550048,9.3991152 7.99856,9.3991152 Z M7.99856,5.199136 C7.231248,5.199136 6.598848,5.8264768 6.598848,6.5996912 C6.598848,7.3720624 7.231248,7.9994032 7.99856,7.9994032 C8.774304,7.9994032 9.398272,7.3720624 9.398272,6.5996912 C9.398272,5.8264768 8.774304,5.199136 7.99856,5.199136 Z" id="Shape"></path>
        </g>
    </g>
</svg>